# File created by Blade
# Date/Time:  Wed Sep 24 20:15:16 2014
# Frame Rate: 120.000 fps
#------------------------------------------------------
:FULLY-SPECIFIED
:DEGREES
1909
root -6.663587 32.760683 -5.562497 16.296376 4.886192 -2.813231
Spine -19.102104 9.847051 -1.429164
Head -10.905876 -27.395417 18.672428
LeftShoulder -2.156881 16.533045 11.524574
LeftArm 25.618833 36.157947 -70.972043
LeftForeArm -0.842031 -0.000000 21.436627
LeftHand -22.189771 -0.000000 -5.160999
LeftHandThumb1 -26.253704 0.000000 33.147579
RightShoulder -13.080722 15.118893 -12.142590
RightArm 6.072680 -51.450612 95.581972
RightForeArm 19.474661 -0.000000 85.389935
RightHand -1.494320 0.000000 16.442217
RightHandThumb1 -24.326973 -0.000000 -32.862282
LeftUpLeg -15.010246 6.408882 6.218697
LeftLeg 1.325074 -0.000000 -0.000000
LeftFoot -11.339123 6.316686 -19.057330
LeftToeBase 9.619370 -0.000000 -0.000000
RightUpLeg -14.854009 -7.186758 1.422657
RightLeg 3.715089 -0.000000 -0.000000
RightFoot -8.524403 -3.454274 -13.402941
RightToeBase 0.306114 -0.000000 -0.000000
1910
root -6.659229 32.761041 -5.562206 16.277460 4.936300 -2.818982
Spine -19.088033 9.744011 -1.365314
Head -10.897980 -27.596952 18.777192
LeftShoulder -2.152849 16.499849 11.559275
LeftArm 25.637838 36.216965 -71.004052
LeftForeArm -0.872254 -0.000000 21.483272
LeftHand -22.162814 -0.000000 -4.592498
LeftHandThumb1 -26.253704 0.000000 33.147579
RightShoulder -13.081960 15.135623 -12.216872
RightArm 5.467940 -49.833954 95.838793
RightForeArm 19.304524 -0.000000 85.581929
RightHand -1.498237 -0.000000 15.155490
RightHandThumb1 -24.326973 -0.000000 -32.862282
LeftUpLeg -15.001849 6.409892 6.218997
LeftLeg 1.324015 -0.000000 -0.000000
LeftFoot -11.303852 6.276271 -18.966865
LeftToeBase 9.552330 -0.000000 -0.000000
RightUpLeg -14.834714 -7.204014 1.422923
RightLeg 3.727331 -0.000000 -0.000000
RightFoot -8.524665 -3.470320 -13.388087
RightToeBase 0.322638 -0.000000 -0.000000
1911
root -6.655237 32.761686 -5.562033 16.259705 4.991860 -2.816979
Spine -19.078002 9.657516 -1.323474
Head -10.907881 -27.828110 18.903187
LeftShoulder -2.117921 16.446180 11.606293
LeftArm 25.650400 36.303744 -71.031378
LeftForeArm -0.953799 -0.000000 21.492982
LeftHand -22.116916 0.000000 -4.187680
LeftHandThumb1 -26.253704 0.000000 33.147579
RightShoulder -13.076105 15.165814 -12.295255
RightArm 4.972786 -48.180074 95.948797
RightForeArm 19.009895 -0.000000 85.754454
RightHand -1.570823 -0.000000 14.079995
RightHandThumb1 -24.326973 -0.000000 -32.862282
LeftUpLeg -14.991710 6.392708 6.217275
LeftLeg 1.314881 -0.000000 -0.000000
LeftFoot -11.272305 6.236670 -18.946901
LeftToeBase 9.532819 -0.000000 -0.000000
RightUpLeg -14.808135 -7.218288 1.417141
RightLeg 3.721612 -0.000000 -0.000000
RightFoot -8.501035 -3.518937 -13.400849
RightToeBase 0.290276 -0.000000 -0.000000
1912
root -6.654267 32.762141 -5.557984 16.222333 5.043530 -2.828687
Spine -19.051924 9.561960 -1.268729
Head -10.914511 -28.028075 19.027412
LeftShoulder -2.096208 16.404366 11.661480
LeftArm 25.685549 36.413501 -71.028268
LeftForeArm -0.997662 -0.000000 21.498365
LeftHand -22.151491 -0.000000 -4.245991
LeftHandThumb1 -26.253704 0.000000 33.147579
RightShoulder -13.067562 15.189778 -12.369018
RightArm 4.452859 -46.483790 96.105306
RightForeArm 18.849452 -0.000000 85.949890
RightHand -1.649103 -0.000000 12.916114
RightHandThumb1 -24.326973 -0.000000 -32.862282
LeftUpLeg -14.948214 6.395118 6.233774
LeftLeg 1.288232 -0.000000 -0.000000
LeftFoot -11.239710 6.183470 -18.957240
LeftToeBase 9.496641 -0.000000 -0.000000
RightUpLeg -14.753253 -7.232429 1.428335
RightLeg 3.708934 -0.000000 -0.000000
RightFoot -8.487951 -3.535847 -13.342509
RightToeBase 0.306856 -0.000000 -0.000000
